<?xml version="1.0" encoding="UTF-8"?>
<svg id="_レイヤー_2" data-name="レイヤー 2" xmlns="http://www.w3.org/2000/svg" viewBox="0 0 944.62 220.26">
  <defs>
    <style>
      .cls-1 {
        fill: #fff;
      }
    </style>
  </defs>
  <g id="_レイヤー_1-2" data-name="レイヤー 1">
    <g>
      <g>
        <path class="cls-1" d="M286.91,90.37c0-25.99-10.53-43.62-29.67-49.63-4.64-1.44-9.51-2.17-14.48-2.17-17.72,0-33.99,9.01-42.46,23.49-8.54,14.49-10.87,34.26-6.21,52.89,5.53,22.11,23.75,37.62,45.35,38.59.75.03,1.5.05,2.26.05,21.24,0,38.34-11.86,43.53-30.14,1.05-3.54.69-7.16-1-10.21-1.72-3.11-4.7-5.45-8.13-6.4-1.32-.38-2.66-.57-3.98-.57-5.93,0-10.73,3.74-12.54,9.77-3.6,11.36-12.36,13.06-17.27,13.06-4.28,0-8.69-1.25-12.07-3.42-6.16-4-9.66-10.93-10.84-21.58h54.52c7.28,0,12.99-6.02,12.99-13.71ZM242.31,62.86c10.82.14,17.06,6.25,18.24,17.75h-39.87c3.29-11.65,10.55-17.75,21.28-17.75h.35Z"/>
        <path class="cls-1" d="M325.18.51c-9.73,0-17.65,7.68-17.65,17.11s7.92,17.29,17.65,17.29,17.83-7.59,17.83-17.29-8-17.11-17.83-17.11Z"/>
        <path class="cls-1" d="M325.18,40.16c-7.71,0-13.53,5.64-13.53,13.12v86.2c0,7.56,5.81,13.26,13.53,13.26s13.53-5.7,13.53-13.26V53.28c0-7.48-5.81-13.12-13.53-13.12Z"/>
        <path class="cls-1" d="M520.78.27c-.89-.18-1.8-.27-2.71-.27-6.44,0-11.71,4.42-13.13,11.05l-19.03,93.61-24.12-93.75c-1.66-6.38-7.96-10.67-15.66-10.67s-14,4.29-15.67,10.69l-24.03,93.39-19.29-93.25c-1.29-6.43-6.67-10.93-13.1-10.93-1,0-2.02.11-3.01.33l-.18.04c-7.41,1.85-11.76,8.76-10.14,16.07l26.53,120.28c1.94,8.53,9.24,14.49,17.75,14.49,6.63,0,14.82-4.03,17.9-15.33l23.18-85.57,22.75,85.71c2.46,9.3,9.57,15.3,18.11,15.3s15.62-5.96,17.56-14.82l26.69-120.02c.88-3.71.3-7.42-1.62-10.45-1.92-3.04-5.03-5.13-8.79-5.92Z"/>
        <path class="cls-1" d="M597.21,38.68c-31.29,0-51.52,22.47-51.52,57.25s19.6,57.79,51.16,57.79c15.58,0,28.56-5.71,37.52-16.5,8.45-10.18,12.92-24.46,12.92-41.28s-4.2-31.42-12.48-41.36c-8.66-10.4-21.66-15.89-37.61-15.89ZM596.85,129.53c-11.91,0-24.64-8.83-24.64-33.6,0-12.35,3.25-33.07,25-33.07,19.48,0,23.57,17.98,23.57,33.07s-2.48,33.6-23.93,33.6Z"/>
        <path class="cls-1" d="M727.17,40.19c-2.39-.38-4.78-.57-7.09-.57-9.73,0-18.8,3.35-27.08,9.99-1.35-5.87-6.45-9.99-12.91-9.99-7.56,0-13.26,5.64-13.26,13.12v86.55c0,7.48,5.7,13.12,13.26,13.12s13.26-5.64,13.26-13.12v-61.24c7.3-8.24,15.42-11.49,28.29-11.49.97,0,1.95.02,2.92.05.2,0,.39.01.58.01,7.04,0,12.52-5.23,13.03-12.44.51-7.13-4.16-13.03-11-14.01Z"/>
        <path class="cls-1" d="M807.41,84.98l23.68-21.81.27-.27c5.36-5.37,5.36-13.15,0-18.52-2.53-2.54-5.97-3.99-9.42-3.99s-6.71,1.42-9.27,3.98l-34.56,34.43V14.39c0-7.41-5.62-12.99-13.08-12.99s-13.08,5.58-13.08,12.99v125.08c0,7.41,5.62,12.99,13.08,12.99s13.08-5.58,13.08-12.99v-27.47l10.51-9.67,25.58,43.53c2.42,4.23,6.56,6.76,11.07,6.76,2.41,0,4.86-.72,7.09-2.09,3.04-1.81,5.25-4.79,6.07-8.18.82-3.39.19-6.95-1.73-9.97l-29.29-47.4Z"/>
        <path class="cls-1" d="M941.33,105.58c-7.25-13.14-20.37-17.58-30.96-19.97l-1.25-.29c-8.19-1.86-13.06-3.08-14.53-3.63-5.22-1.9-8.34-4.3-9.53-7.25-.61-1.6-.51-2.99.32-4.48,1.75-3.14,6.22-5.67,9.51-6.29,1.52-.28,2.99-.43,4.37-.43,7.38,0,13.05,4.19,16.89,12.54,2.32,4.83,6.7,7.72,11.71,7.72,2.14,0,4.32-.54,6.29-1.57,5.62-2.85,9.56-9.99,6.19-18.25-4.1-9.71-11.56-17.38-21.07-21.63-5.81-2.5-12.44-3.83-19.16-3.83-8.3,0-16.41,1.95-23.49,5.66-8.07,4.3-14.14,11.76-16.66,20.47-2.43,8.39-1.43,17.1,2.79,24.51,6.12,10.84,18.51,15.3,27.3,17.71.62.17,1.78.43,4.14.97,4.2.95,14.04,3.17,16.49,4.17l.18.07c3.68,1.37,6.26,3.26,7.07,5.19.22.51.87,2.08-.64,5.46-1.67,3.89-7.15,6.01-11.36,6.65-1.61.25-3.18.38-4.67.38-8.98,0-15.87-4.61-21.66-14.5-2.51-4.3-6.65-6.76-11.37-6.76s-9.57,2.72-12.04,6.94c-2.46,4.19-2.43,9.17.09,13.67,9.12,16.26,25.44,25.58,44.77,25.58,13.42,0,26.55-4.85,34.23-12.62,9.53-9.53,12.12-25.07,6.03-36.17Z"/>
      </g>
      <g>
        <path class="cls-1" d="M203.25,212.32c-6.74,0-10.68-2.85-11.44-8.67-.36-1.29.56-2.01,1.53-2.13.92-.12,1.77.52,1.85,1.57.76,4.01,3.25,6.06,8.19,6.06,3.85,0,7.23-1.65,7.23-5.46,0-2.21-1.12-3.53-2.77-4.54-.84-.48-1.81-.88-2.77-1.24-1-.36-2.13-.68-3.17-1-4.26-1.36-8.35-3.33-8.35-8.43,0-5.62,4.7-8.23,10.28-8.23s8.79,2.57,9.76,7.03c.24,1.16-.44,1.77-1.37,1.97-.88.2-1.73-.4-2.01-1.4-.76-2.85-2.65-4.54-6.3-4.54-4.26,0-6.75,1.85-6.75,5.06s2.77,4.78,5.86,5.78c1.57.52,3.25.96,4.82,1.53,1.61.56,3.01,1.28,4.1,2.25,1.49,1.36,2.25,3.45,2.25,5.46,0,5.94-4.86,8.95-10.92,8.95Z"/>
        <path class="cls-1" d="M235.37,207.66c0,.28,0,1.2.52,1.69,1.08,1.08-.04,2.93-1.57,2.41-1-.36-1.53-1.37-1.89-2.77-5.18,5.38-13.05,3.17-13.69-2.09-.52-4.05,2.69-8.15,9.11-8.15h4.42c0-.68.04-1.33.08-1.97,0-.64,0-1.36-.16-2.05-.28-1.36-1.12-2.57-3.13-2.89-2.61-.4-5.22.48-6.5,2.97-1.08,2.13-3.98.64-3.05-1.2,1.97-3.81,6.18-5.1,9.96-4.54,4.74.68,5.9,3.81,5.9,8.55v10.04ZM232.32,201.4h-4.46c-2.65,0-6.02,1.61-5.86,4.86.12,2.01,2.05,3.17,4.22,3.09,2.17-.12,4.7-1.41,6.1-4.38v-3.57Z"/>
        <path class="cls-1" d="M251.07,207.42s3.37-8.63,6.66-17.22c.4-1.04,1.37-1.2,2.09-.92.88.36,1.24,1.2.88,2.13l-8.99,22.32c-.4.96-.68,1.85-1.24,2.89-.8,1.57-2.13,2.89-3.85,3.41-1.61.48-3.37.16-5.02-.36-.96-.32-1.2-1.25-.96-2.01.24-.72.96-1.33,1.97-.96.76.24,1.49.56,2.37.56,1.45.04,2.33-.96,2.89-2.05.32-.56,1-2.45,1.61-3.89,0-.08-.04-.08-.04-.12l-7.95-19.75c-.44-1.08.2-1.89.96-2.21.96-.36,1.85,0,2.21.96l6.42,17.22Z"/>
        <path class="cls-1" d="M286.36,207.42s3.37-8.63,6.66-17.22c.4-1.04,1.37-1.2,2.09-.92.88.36,1.24,1.2.88,2.13l-8.99,22.32c-.4.96-.68,1.85-1.24,2.89-.8,1.57-2.13,2.89-3.85,3.41-1.61.48-3.37.16-5.02-.36-.96-.32-1.2-1.25-.96-2.01.24-.72.96-1.33,1.97-.96.76.24,1.49.56,2.37.56,1.45.04,2.33-.96,2.89-2.05.32-.56,1-2.45,1.61-3.89,0-.08-.04-.08-.04-.12l-7.95-19.75c-.44-1.08.2-1.89.96-2.21.96-.36,1.85,0,2.21.96l6.42,17.22Z"/>
        <path class="cls-1" d="M311.08,212.2c-6.54,0-10.12-4.54-10.12-11.6s3.81-11.48,10.2-11.48,9.88,4.38,9.88,11.48-3.57,11.6-9.96,11.6ZM311.17,191.84c-4.5,0-6.95,3.37-6.95,8.75s2.53,8.87,6.87,8.87c4.78,0,6.71-3.49,6.71-8.87s-2.13-8.75-6.62-8.75Z"/>
        <path class="cls-1" d="M344.21,210.31c0,2.13-3.21,2.13-3.21,0v-1.73c-3.17,2.29-7.03,4.34-10.6,3.09-2.81-1-4.01-3.89-4.01-6.7v-13.93c0-2.17,3.17-2.13,3.17,0v13.09c0,2.77.52,5.1,3.73,5.22,2.81.08,5.5-1.53,7.71-3.13v-15.18c0-2.13,3.21-2.13,3.21,0v19.27Z"/>
        <path class="cls-1" d="M355.08,193.41c2.73-3.41,5.66-4.46,8.71-3.98,1.97.28,1.69,3.33-.32,3.25-3.53-.12-6.1.6-8.39,3.41v14.21c0,2.13-3.25,2.13-3.25,0v-19.39c0-2.13,3.25-2.13,3.25,0v2.49Z"/>
        <path class="cls-1" d="M402.86,209.91c-1,3.05-3.85,2.01-4.3.32l-3.98-15.66c-.04-.16-.24-.28-.44-.28-.16,0-.36.12-.4.28l-4.22,15.58c-.56,2.13-3.49,2.41-4.3-.16l-5.7-18.35c-.32-1,.16-1.85,1.08-2.17.8-.24,1.73.04,2.01,1.08l4.3,16.22c.04.16.24.28.44.28.16,0,.36-.12.44-.28l4.22-15.98c.56-2.09,3.81-2.05,4.34.04l3.98,15.94c.04.16.24.32.4.32.2,0,.36-.12.44-.32l4.58-16.14c.32-1.08,1.2-1.36,2.05-1.12.76.2,1.41.96,1.08,2.01l-6.02,18.39Z"/>
        <path class="cls-1" d="M423.21,212.2c-6.54,0-10.12-4.54-10.12-11.6s3.81-11.48,10.2-11.48,9.88,4.38,9.88,11.48-3.57,11.6-9.96,11.6ZM423.29,191.84c-4.5,0-6.95,3.37-6.95,8.75s2.53,8.87,6.87,8.87c4.78,0,6.7-3.49,6.7-8.87s-2.13-8.75-6.63-8.75Z"/>
        <path class="cls-1" d="M441.2,193.41c2.73-3.41,5.66-4.46,8.71-3.98,1.97.28,1.69,3.33-.32,3.25-3.53-.12-6.1.6-8.39,3.41v14.21c0,2.13-3.25,2.13-3.25,0v-19.39c0-2.13,3.25-2.13,3.25,0v2.49Z"/>
        <path class="cls-1" d="M464.08,197.9l7.15,11.56c.56.88.16,1.81-.52,2.21-.84.52-1.73.28-2.21-.56l-6.58-11.2-4.01,3.69v6.75c0,2.09-3.17,2.09-3.17,0v-28.02c0-2.09,3.17-2.09,3.17,0v17.67l10.04-10c.76-.76,1.73-.56,2.29,0,.6.6.76,1.49,0,2.25l-.04.04-6.1,5.62Z"/>
        <path class="cls-1" d="M491.22,209.91c-3.25,3.29-11.88,3.97-15.58-2.61-1.12-2.01,1.77-3.69,2.89-1.77,1.65,2.81,3.93,4.34,7.27,3.81,1.33-.2,2.97-.88,3.57-2.29,1-2.25-.48-3.53-2.21-4.18-.88-.36-4.34-1.08-4.78-1.2-2.05-.56-4.26-1.49-5.3-3.33-1.65-2.89-.44-6.62,2.57-8.23,2.53-1.33,5.78-1.49,8.39-.36,1.89.84,3.25,2.33,4.01,4.14.44,1.08-.04,2.01-.76,2.37-.76.4-1.73.24-2.21-.76-1.16-2.53-3.21-4.01-6.22-3.45-1.69.32-4.06,2.01-3.21,4.22.48,1.2,1.61,1.93,2.93,2.41.64.24,3.17.8,3.69.92,2.49.56,4.78,1.49,6.06,3.81,1.12,2.05.52,4.86-1.12,6.5Z"/>
        <path class="cls-1" d="M525.26,207.66c0,.28,0,1.2.52,1.69,1.08,1.08-.04,2.93-1.57,2.41-1-.36-1.53-1.37-1.89-2.77-5.18,5.38-13.05,3.17-13.69-2.09-.52-4.05,2.69-8.15,9.11-8.15h4.42c0-.68.04-1.33.08-1.97,0-.64,0-1.36-.16-2.05-.28-1.36-1.12-2.57-3.13-2.89-2.61-.4-5.22.48-6.5,2.97-1.08,2.13-3.97.64-3.05-1.2,1.97-3.81,6.18-5.1,9.96-4.54,4.74.68,5.9,3.81,5.9,8.55v10.04ZM522.21,201.4h-4.46c-2.65,0-6.02,1.61-5.86,4.86.12,2.01,2.05,3.17,4.22,3.09,2.17-.12,4.7-1.41,6.1-4.38v-3.57Z"/>
        <path class="cls-1" d="M549.43,210.31c0,1.04-.76,1.57-1.57,1.57-.84,0-1.61-.52-1.61-1.57v-13.85c0-1.69-.48-3.94-2.33-4.34-.52-.12-1-.16-1.53-.16-2.69,0-5.3,1.89-7.59,3.37v14.97c0,1.04-.8,1.61-1.61,1.61-.84,0-1.61-.56-1.61-1.61v-19.39c0-1.08.76-1.61,1.57-1.61.84,0,1.65.52,1.65,1.61v1.85l1.45-.96c1.93-1.28,4.78-2.49,7.35-2.49,2.01,0,3.77.76,4.9,2.85.6,1.16.92,2.57.92,3.89v14.25Z"/>
        <path class="cls-1" d="M573.44,210.31c0,2.09-3.13,2.09-3.13,0v-1.12c-3.49,2.81-9.35,4.17-12.81.64-3.01-3.09-3.37-8.43-2.65-12.53.88-5.18,4.22-7.79,8.39-7.91,2.37-.08,4.66.72,7.07,2.81v-10.24c0-2.09,3.13-2.09,3.13,0v28.34ZM570.3,194.85c-1.41-1.24-2.97-2.37-4.82-2.65-4.26-.6-7.19,1.53-7.59,6.99-.16,2.13-.08,4.5.72,6.54.76,2.01,2.37,3.45,4.62,3.45,3.98,0,5.9-1.85,7.07-3.13v-11.2Z"/>
        <path class="cls-1" d="M593.67,210.35c0,2.17-3.49,2.17-3.49,0v-28.02c0-2.17,3.49-2.17,3.49,0v28.02Z"/>
        <path class="cls-1" d="M602.3,201.07c.08,2.85.72,5.74,3.13,7.31,2.57,1.65,7.19,1.57,8.59-2.89.32-1.08,1.2-1.41,2.05-1.16.72.2,1.45.96,1.12,2.05-1.16,4.1-5.18,5.94-8.91,5.78-4.46-.2-7.87-3.45-8.91-7.63-.88-3.53-.6-7.71,1.24-10.84,2.21-3.77,7.07-5.46,11.2-4.18,4.22,1.33,5.7,5.46,5.7,9.84,0,.92-.64,1.73-1.57,1.73h-13.65ZM613.86,198.5c.24,0,.44-.16.48-.4,0-4.34-2.37-6.22-5.46-6.26-3.17-.04-5.86,1.93-6.5,6.66h11.48Z"/>
        <path class="cls-1" d="M629.28,192.6v13.69c0,1.37.52,2.65,2.21,2.81,1.08.08,2.13-.28,3.13-.64.96-.32,1.65.2,1.93.92.28.72.04,1.61-.84,1.93-2.25.84-5.14,1.37-7.15.08-2.05-1.28-2.49-3.45-2.49-5.78v-13.01h-3.49c-1.81,0-1.81-2.81,0-2.81h3.49v-4.82c0-1.04.76-1.61,1.61-1.61s1.61.56,1.61,1.61v4.82h3.25c1.85,0,1.85,2.81,0,2.81h-3.25Z"/>
        <path class="cls-1" d="M659.79,192.6v13.69c0,1.37.52,2.65,2.21,2.81,1.08.08,2.13-.28,3.13-.64.96-.32,1.65.2,1.93.92.28.72.04,1.61-.84,1.93-2.25.84-5.14,1.37-7.15.08-2.05-1.28-2.49-3.45-2.49-5.78v-13.01h-3.49c-1.81,0-1.81-2.81,0-2.81h3.49v-4.82c0-1.04.76-1.61,1.61-1.61s1.61.56,1.61,1.61v4.82h3.25c1.85,0,1.85,2.81,0,2.81h-3.25Z"/>
        <path class="cls-1" d="M690.02,210.47c0,1.08-.76,1.61-1.61,1.61-.88.04-1.69-.52-1.69-1.65v-10.88c0-.68,0-1.45-.04-2.21-.16-2.37-.8-4.86-3.81-5.06-2.81-.16-5.3,1.04-7.47,2.77v15.3c0,2.09-3.17,2.09-3.17,0v-28.67c0-2.13,3.17-2.13,3.17,0v10.88c2.69-2.29,5.42-3.49,8.43-3.25,1.81.12,3.49.96,4.62,2.41,1.04,1.36,1.57,3.89,1.57,5.98v12.77Z"/>
        <path class="cls-1" d="M698.28,201.07c.08,2.85.72,5.74,3.13,7.31,2.57,1.65,7.19,1.57,8.59-2.89.32-1.08,1.2-1.41,2.05-1.16.72.2,1.45.96,1.12,2.05-1.16,4.1-5.18,5.94-8.91,5.78-4.46-.2-7.87-3.45-8.91-7.63-.88-3.53-.6-7.71,1.24-10.84,2.21-3.77,7.07-5.46,11.2-4.18,4.22,1.33,5.7,5.46,5.7,9.84,0,.92-.64,1.73-1.57,1.73h-13.65ZM709.85,198.5c.24,0,.44-.16.48-.4,0-4.34-2.37-6.22-5.46-6.26-3.17-.04-5.86,1.93-6.5,6.66h11.48Z"/>
        <path class="cls-1" d="M747.75,210.31c0,2.09-3.09,2.09-3.09,0v-12.65c0-.52.12-1.69-.08-2.81-.16-1.08-.64-2.25-1.81-2.65-2.73-.96-5.82,1.37-8.15,3.01.08.84.04,1.28.04,2.05v13.05c0,2.09-3.09,2.09-3.09,0v-13.81c0-1.61-.12-3.37-1.81-4.34-2.61-1-5.78,1.33-8.03,2.93v15.22c0,2.09-3.09,2.09-3.09,0v-19.39c0-2.09,3.09-2.09,3.09,0v1.53c2.77-1.89,5.46-3.69,8.35-3.13,1.93.4,3.25,1.69,4.14,3.61,2.85-2.09,6.14-4.34,9.35-3.45,2.25.64,3.29,2.33,3.77,4.14.24.92.36,1.85.36,2.65.04.84.04,1.57.04,2.05v12Z"/>
        <path class="cls-1" d="M766.93,193c2.57-2.53,5.42-3.89,8.63-3.61,4.62.44,6.66,4.78,7.03,8.95.4,4.18-.12,9.31-3.73,12-2.97,2.21-7.71,2.29-11.92-1.08v1.04c0,2.09-3.13,2.09-3.13,0v-28.34c0-2.09,3.13-2.09,3.13,0v11.04ZM766.93,206.09c2.85,2.85,5.66,3.49,8.11,2.85,4.3-1.12,4.7-6.79,4.22-10.84-.2-1.89-.76-4.38-2.73-5.38-2.05-1.08-5.3-.88-9.6,2.89v10.48Z"/>
        <path class="cls-1" d="M790.22,201.07c.08,2.85.72,5.74,3.13,7.31,2.57,1.65,7.19,1.57,8.59-2.89.32-1.08,1.2-1.41,2.05-1.16.72.2,1.45.96,1.12,2.05-1.16,4.1-5.18,5.94-8.91,5.78-4.46-.2-7.87-3.45-8.91-7.63-.88-3.53-.6-7.71,1.24-10.84,2.21-3.77,7.07-5.46,11.2-4.18,4.22,1.33,5.7,5.46,5.7,9.84,0,.92-.64,1.73-1.57,1.73h-13.65ZM801.78,198.5c.24,0,.44-.16.48-.4,0-4.34-2.37-6.22-5.46-6.26-3.17-.04-5.86,1.93-6.5,6.66h11.48Z"/>
        <path class="cls-1" d="M844.26,209.91c-1,3.05-3.85,2.01-4.3.32l-3.98-15.66c-.04-.16-.24-.28-.44-.28-.16,0-.36.12-.4.28l-4.22,15.58c-.56,2.13-3.49,2.41-4.3-.16l-5.7-18.35c-.32-1,.16-1.85,1.08-2.17.8-.24,1.73.04,2.01,1.08l4.3,16.22c.04.16.24.28.44.28.16,0,.36-.12.44-.28l4.22-15.98c.56-2.09,3.81-2.05,4.34.04l3.98,15.94c.04.16.24.32.4.32.2,0,.36-.12.44-.32l4.58-16.14c.32-1.08,1.2-1.36,2.05-1.12.76.2,1.41.96,1.08,2.01l-6.02,18.39Z"/>
        <path class="cls-1" d="M864.61,212.2c-6.54,0-10.12-4.54-10.12-11.6s3.81-11.48,10.2-11.48,9.88,4.38,9.88,11.48-3.57,11.6-9.96,11.6ZM864.69,191.84c-4.5,0-6.95,3.37-6.95,8.75s2.53,8.87,6.87,8.87c4.78,0,6.7-3.49,6.7-8.87s-2.13-8.75-6.63-8.75Z"/>
        <path class="cls-1" d="M882.59,193.41c2.73-3.41,5.66-4.46,8.71-3.98,1.97.28,1.69,3.33-.32,3.25-3.53-.12-6.1.6-8.39,3.41v14.21c0,2.13-3.25,2.13-3.25,0v-19.39c0-2.13,3.25-2.13,3.25,0v2.49Z"/>
        <path class="cls-1" d="M905.47,197.9l7.15,11.56c.56.88.16,1.81-.52,2.21-.84.52-1.73.28-2.21-.56l-6.58-11.2-4.01,3.69v6.75c0,2.09-3.17,2.09-3.17,0v-28.02c0-2.09,3.17-2.09,3.17,0v17.67l10.04-10c.76-.76,1.73-.56,2.29,0,.6.6.76,1.49,0,2.25l-.04.04-6.1,5.62Z"/>
        <path class="cls-1" d="M932.61,209.91c-3.25,3.29-11.88,3.97-15.58-2.61-1.12-2.01,1.77-3.69,2.89-1.77,1.65,2.81,3.93,4.34,7.27,3.81,1.33-.2,2.97-.88,3.57-2.29,1-2.25-.48-3.53-2.21-4.18-.88-.36-4.34-1.08-4.78-1.2-2.05-.56-4.26-1.49-5.3-3.33-1.65-2.89-.44-6.62,2.57-8.23,2.53-1.33,5.78-1.49,8.39-.36,1.89.84,3.25,2.33,4.01,4.14.44,1.08-.04,2.01-.76,2.37-.76.4-1.73.24-2.21-.76-1.16-2.53-3.21-4.01-6.22-3.45-1.69.32-4.06,2.01-3.21,4.22.48,1.2,1.61,1.93,2.93,2.41.64.24,3.17.8,3.69.92,2.49.56,4.78,1.49,6.06,3.81,1.12,2.05.52,4.86-1.12,6.5Z"/>
        <path class="cls-1" d="M941.97,211.67c-1.45,0-2.61-1.2-2.61-2.65s1.16-2.65,2.61-2.65,2.65,1.16,2.65,2.65-1.16,2.65-2.65,2.65Z"/>
      </g>
      <g>
        <path class="cls-1" d="M154.42,137.84c9.96,52.89-41.13,96.23-92.12,78.31-12.41-4.36-47.65-31.2-57.27-41.12-13.47-13.9,2.21-37.1,22.19-25.58,15.28,8.81,34.23,32.97,51.18,36.33,35.85,7.11,58.47-35.44,31.17-61.71-9.42-9.06-36.32-25.37-41.72-34.65-8.67-14.9,7.79-32.23,24.18-22.44,11.02,6.58,42.37,32.53,49.87,42.49,6.21,8.24,10.6,18.2,12.52,28.36Z"/>
        <path class="cls-1" d="M1.77,85.65C-9.51,33.02,40.49-11.57,91.91,5.07c12.52,4.05,48.41,30,58.27,39.68,13.81,13.56-1.29,37.14-21.54,26.12-15.5-8.43-35.04-32.1-52.07-35.04-36.02-6.22-57.57,36.88-29.62,62.46,9.64,8.82,36.94,24.46,42.57,33.6,9.04,14.67-6.99,32.41-23.62,23.04-11.18-6.3-43.17-31.47-50.92-41.24-6.41-8.08-11.05-17.93-13.22-28.04Z"/>
      </g>
    </g>
  </g>
</svg>